<?xml version="1.0" encoding="utf-8"?>
<!-- Generator: Adobe Illustrator 16.0.0, SVG Export Plug-In . SVG Version: 6.00 Build 0)  -->
<!DOCTYPE svg PUBLIC "-//W3C//DTD SVG 1.1//EN" "http://www.w3.org/Graphics/SVG/1.1/DTD/svg11.dtd">
<svg version="1.1" xmlns="http://www.w3.org/2000/svg" xmlns:xlink="http://www.w3.org/1999/xlink" x="0px" y="0px" width="35px"
	 height="34.973px" viewBox="0 0 35 34.973" enable-background="new 0 0 35 34.973" xml:space="preserve">
<g id="Bg">
	<rect fill="#FFFFFF" width="35" height="34.973"/>
</g>
<g id="Object">
	<g>
		<path fill="#616E7D" d="M0.451,32.223c0,0.612,0.222,1.21,0.618,1.644c0.394,0.432,0.937,0.682,1.494,0.682h0.264h1.126h28.479
			c0.558,0,1.104-0.25,1.493-0.682c0.397-0.434,0.623-1.031,0.623-1.644V12.975H0.451V32.223z M18.22,27.975
			c0.012-0.145,0.034-0.263,0.065-0.351c0.03-0.09,0.064-0.151,0.103-0.189c0.046-0.036,0.092-0.057,0.142-0.057
			c0.068,0,0.172,0.043,0.31,0.127c0.141,0.086,0.324,0.181,0.55,0.286c0.226,0.104,0.5,0.199,0.825,0.285
			c0.324,0.086,0.71,0.126,1.165,0.126c0.394,0,0.752-0.045,1.069-0.133c0.324-0.088,0.592-0.232,0.817-0.429
			c0.218-0.197,0.394-0.443,0.516-0.741s0.18-0.654,0.18-1.069c0-0.359-0.05-0.676-0.149-0.955c-0.103-0.278-0.26-0.513-0.478-0.707
			c-0.214-0.194-0.492-0.336-0.84-0.436c-0.344-0.098-0.764-0.145-1.257-0.145c-0.39,0-0.745,0.022-1.069,0.065
			c-0.321,0.048-0.623,0.07-0.905,0.07c-0.195,0-0.336-0.057-0.424-0.165c-0.08-0.108-0.122-0.305-0.122-0.596v-6.265
			c0-0.299,0.049-0.513,0.156-0.644c0.106-0.127,0.271-0.192,0.5-0.192h6.211c0.062,0,0.118,0.022,0.176,0.065
			c0.05,0.045,0.096,0.113,0.134,0.213c0.034,0.095,0.064,0.223,0.08,0.383C25.993,16.685,26,16.876,26,17.1
			c0,0.444-0.038,0.77-0.106,0.971c-0.069,0.198-0.176,0.301-0.31,0.301h-4.66v3.088c0.237-0.029,0.474-0.05,0.707-0.057
			c0.229-0.009,0.478-0.011,0.733-0.011c0.706,0,1.337,0.09,1.887,0.275c0.55,0.178,1.012,0.446,1.391,0.801
			c0.374,0.351,0.66,0.79,0.855,1.316c0.194,0.521,0.294,1.131,0.294,1.822c0,0.778-0.126,1.477-0.37,2.09
			c-0.249,0.614-0.593,1.129-1.043,1.549c-0.447,0.422-0.993,0.743-1.623,0.967c-0.631,0.221-1.334,0.334-2.102,0.334
			c-0.404,0-0.79-0.027-1.157-0.086c-0.362-0.057-0.691-0.124-0.981-0.21c-0.29-0.084-0.527-0.174-0.714-0.258
			c-0.184-0.085-0.306-0.155-0.367-0.214c-0.054-0.052-0.096-0.113-0.122-0.184c-0.03-0.065-0.05-0.144-0.068-0.239
			c-0.02-0.09-0.027-0.21-0.035-0.35c-0.007-0.14-0.011-0.307-0.011-0.501C18.197,28.295,18.204,28.119,18.22,27.975z M8.216,18.576
			c0.008-0.117,0.023-0.215,0.05-0.298c0.027-0.082,0.065-0.147,0.111-0.199c0.05-0.052,0.114-0.108,0.194-0.167l2.819-2.009
			c0.03-0.025,0.072-0.052,0.126-0.07c0.05-0.018,0.114-0.034,0.198-0.043c0.076-0.014,0.188-0.021,0.313-0.022
			c0.138-0.005,0.306-0.007,0.516-0.007c0.256,0,0.462,0.007,0.622,0.016c0.161,0.014,0.279,0.029,0.359,0.057
			c0.084,0.025,0.138,0.062,0.164,0.106c0.023,0.043,0.038,0.099,0.038,0.167v11.92h2.14c0.061,0,0.118,0.021,0.168,0.059
			c0.05,0.043,0.096,0.108,0.13,0.196c0.038,0.088,0.064,0.208,0.084,0.353c0.016,0.142,0.026,0.322,0.026,0.539
			c0,0.21-0.011,0.387-0.034,0.53c-0.02,0.145-0.046,0.26-0.084,0.344c-0.038,0.088-0.08,0.148-0.13,0.188
			c-0.046,0.036-0.1,0.057-0.16,0.057H8.633c-0.054,0-0.104-0.021-0.153-0.057c-0.046-0.039-0.088-0.1-0.126-0.188
			c-0.038-0.084-0.064-0.199-0.088-0.344c-0.019-0.144-0.03-0.32-0.03-0.53c0-0.217,0.012-0.397,0.026-0.539
			c0.02-0.145,0.042-0.265,0.084-0.353c0.035-0.088,0.077-0.153,0.126-0.196c0.046-0.038,0.1-0.059,0.161-0.059h2.44v-9.39
			l-2.104,1.282c-0.156,0.084-0.282,0.131-0.382,0.151c-0.1,0.016-0.176-0.002-0.233-0.067c-0.057-0.063-0.096-0.172-0.118-0.33
			c-0.02-0.155-0.026-0.374-0.026-0.656C8.209,18.838,8.213,18.691,8.216,18.576z"/>
		<rect x="0.451" y="10.756" fill="#AAD4C8" width="34.098" height="1.379"/>
		<path fill="#AAD4C8" d="M3.953,4.132H2.827H2.563c-0.558,0-1.101,0.249-1.494,0.682C0.673,5.25,0.451,5.848,0.451,6.462v2.702
			h34.098V6.462c0-0.614-0.226-1.212-0.623-1.648c-0.39-0.433-0.936-0.682-1.493-0.682h-3.587v3.046c0,0.571-0.42,1.031-0.936,1.031
			h-1.971c-0.516,0-0.936-0.46-0.936-1.031V4.132H9.992v3.046c0,0.571-0.416,1.031-0.932,1.031H7.09c-0.52,0-0.94-0.46-0.94-1.031
			V4.132H3.953z"/>
		<rect x="0.451" y="9.164" fill="#82BFAB" width="34.098" height="1.592"/>
		<rect x="7.09" y="1.452" fill="#616E7D" width="1.971" height="5.726"/>
		<path fill="#FFFFFF" d="M7.09,0.425c-0.52,0-0.94,0.461-0.94,1.027v2.68v3.046c0,0.571,0.421,1.031,0.94,1.031h1.971
			c0.516,0,0.932-0.46,0.932-1.031V4.132v-2.68c0-0.566-0.416-1.027-0.932-1.027H7.09z M9.061,7.178H7.09V1.452h1.971V7.178z"/>
		<rect x="25.939" y="1.452" fill="#616E7D" width="1.971" height="5.726"/>
		<path fill="#FFFFFF" d="M25.939,0.425c-0.516,0-0.936,0.461-0.936,1.027v2.68v3.046c0,0.571,0.42,1.031,0.936,1.031h1.971
			c0.516,0,0.936-0.46,0.936-1.031V4.132v-2.68c0-0.566-0.42-1.027-0.936-1.027H25.939z M27.91,7.178h-1.971V1.452h1.971V7.178z"/>
		<path fill="#FFFFFF" d="M8.633,28.026c-0.062,0-0.115,0.021-0.161,0.059c-0.049,0.043-0.091,0.108-0.126,0.196
			c-0.042,0.088-0.064,0.208-0.084,0.353c-0.015,0.142-0.026,0.322-0.026,0.539c0,0.21,0.012,0.387,0.03,0.53
			c0.023,0.145,0.05,0.26,0.088,0.344c0.038,0.088,0.08,0.148,0.126,0.188c0.05,0.036,0.1,0.057,0.153,0.057h7.234
			c0.061,0,0.114-0.021,0.16-0.057c0.05-0.039,0.092-0.1,0.13-0.188c0.038-0.084,0.064-0.199,0.084-0.344
			c0.023-0.144,0.034-0.32,0.034-0.53c0-0.217-0.011-0.397-0.026-0.539c-0.02-0.145-0.046-0.265-0.084-0.353
			c-0.034-0.088-0.08-0.153-0.13-0.196c-0.05-0.038-0.107-0.059-0.168-0.059h-2.14v-11.92c0-0.068-0.015-0.124-0.038-0.167
			c-0.026-0.045-0.08-0.081-0.164-0.106c-0.08-0.027-0.198-0.043-0.359-0.057c-0.16-0.009-0.366-0.016-0.622-0.016
			c-0.21,0-0.378,0.002-0.516,0.007c-0.126,0.002-0.237,0.009-0.313,0.022c-0.084,0.009-0.148,0.025-0.198,0.043
			c-0.054,0.019-0.096,0.045-0.126,0.07l-2.819,2.009c-0.08,0.059-0.145,0.115-0.194,0.167c-0.046,0.052-0.084,0.117-0.111,0.199
			c-0.026,0.083-0.042,0.181-0.05,0.298c-0.003,0.115-0.007,0.262-0.007,0.44c0,0.282,0.007,0.501,0.026,0.656
			c0.022,0.158,0.062,0.267,0.118,0.33c0.058,0.065,0.134,0.083,0.233,0.067c0.1-0.021,0.226-0.067,0.382-0.151l2.104-1.282v9.39
			H8.633z"/>
		<path fill="#FFFFFF" d="M23.266,27.641c-0.226,0.196-0.493,0.341-0.817,0.429c-0.317,0.088-0.676,0.133-1.069,0.133
			c-0.455,0-0.841-0.04-1.165-0.126c-0.325-0.086-0.6-0.181-0.825-0.285c-0.226-0.105-0.409-0.2-0.55-0.286
			c-0.138-0.084-0.241-0.127-0.31-0.127c-0.05,0-0.096,0.021-0.142,0.057c-0.038,0.038-0.072,0.1-0.103,0.189
			c-0.031,0.088-0.054,0.206-0.065,0.351c-0.016,0.145-0.022,0.32-0.022,0.53c0,0.194,0.004,0.361,0.011,0.501
			c0.008,0.14,0.016,0.26,0.035,0.35c0.019,0.096,0.038,0.174,0.068,0.239c0.026,0.07,0.068,0.132,0.122,0.184
			c0.062,0.059,0.184,0.129,0.367,0.214c0.187,0.084,0.424,0.174,0.714,0.258c0.29,0.086,0.619,0.153,0.981,0.21
			c0.367,0.059,0.753,0.086,1.157,0.086c0.768,0,1.471-0.113,2.102-0.334c0.63-0.224,1.176-0.545,1.623-0.967
			c0.45-0.42,0.794-0.935,1.043-1.549c0.244-0.613,0.37-1.312,0.37-2.09c0-0.691-0.1-1.301-0.294-1.822
			c-0.195-0.526-0.481-0.966-0.855-1.316c-0.379-0.354-0.841-0.623-1.391-0.801c-0.55-0.186-1.181-0.275-1.887-0.275
			c-0.256,0-0.504,0.002-0.733,0.011c-0.233,0.007-0.47,0.027-0.707,0.057v-3.088h4.66c0.134,0,0.24-0.103,0.31-0.301
			C25.962,17.869,26,17.544,26,17.1c0-0.224-0.007-0.415-0.026-0.576c-0.016-0.16-0.046-0.288-0.08-0.383
			c-0.038-0.1-0.084-0.168-0.134-0.213c-0.058-0.043-0.114-0.065-0.176-0.065h-6.211c-0.229,0-0.394,0.065-0.5,0.192
			c-0.107,0.131-0.156,0.345-0.156,0.644v6.265c0,0.291,0.042,0.487,0.122,0.596c0.088,0.108,0.229,0.165,0.424,0.165
			c0.282,0,0.584-0.022,0.905-0.07c0.324-0.043,0.68-0.065,1.069-0.065c0.493,0,0.913,0.047,1.257,0.145
			c0.348,0.1,0.626,0.241,0.84,0.436c0.218,0.194,0.375,0.429,0.478,0.707c0.1,0.279,0.149,0.596,0.149,0.955
			c0,0.415-0.058,0.771-0.18,1.069S23.483,27.443,23.266,27.641z"/>
	</g>
</g>
</svg>
